<?xml version="1.0" encoding="iso-8859-1"?>
<!-- Generator: Adobe Illustrator 19.0.0, SVG Export Plug-In . SVG Version: 6.00 Build 0)  -->
<svg version="1.1" id="Capa_1" xmlns="http://www.w3.org/2000/svg" xmlns:xlink="http://www.w3.org/1999/xlink" x="0px" y="0px"
	 viewBox="0 0 168.05 168.05" style="enable-background:new 0 0 168.05 168.05;" xml:space="preserve">
<g>
	<g>
		<path style="fill:#FF9F40;" d="M65.79,40.58c-0.08,0.12-0.149,0.25-0.24,0.37c-3.46,5.51-8.05,10.41-13.05,14.68
			c-3.55,3.05-7.31,5.77-11.01,8.16v0.01c-7.79,5.05-15.35,8.67-20.29,10.811c-3.519,1.529-5.71,2.3-5.71,2.3
			s-3.97-4.261-6.62-12.34V64.56c-3.32-10.1-4.56-26.18,6.62-47.38c3.27-6.2,17.85,1.25,30.47,9.351
			C56.561,33.33,65.79,40.58,65.79,40.58z"/>
		<path style="fill:#FFCA8A;" d="M59.307,45.574c0,0-33.747-26.408-39.3-18.287c-19.03,27.828,0,46.67,0,46.67
			S47.845,64.131,59.307,45.574z"/>
		<path style="fill:#FF9F40;" d="M102.255,40.584c0,0,44.283-34.818,50.303-23.403c20.122,38.169,0,59.732,0,59.732
			S116.927,64.338,102.255,40.584z"/>
		<path style="fill:#FFCA8A;" d="M108.744,45.574c0,0,33.746-26.408,39.299-18.287c19.03,27.828,0,46.67,0,46.67
			S120.207,64.131,108.744,45.574z"/>
		<path style="fill:#FF9F40;" d="M168.05,89.56c0,11.07-3.51,21.53-9.699,30.69c-0.82,1.2-1.67,2.39-2.59,3.56
			c-0.41,0.53-0.83,1.04-1.261,1.561c-6.84,8.22-15.96,15.18-26.649,20.319c-1.65,0.79-3.34,1.561-5.06,2.25h-0.01
			c-0.85,0.36-1.7,0.7-2.58,1.03c-2.189,0.82-4.43,1.58-6.74,2.25c-9.01,2.66-18.729,4.15-28.899,4.24v0.03
			c-0.181,0-0.34-0.011-0.53-0.011h-0.01c-0.17,0-0.351,0.011-0.53,0.011v-0.03c-10.17-0.09-19.89-1.58-28.89-4.24
			c-2.31-0.67-4.56-1.43-6.75-2.25c-0.87-0.33-1.73-0.67-2.58-1.03h-0.01c-1.721-0.689-3.4-1.46-5.051-2.25
			c-10.699-5.14-19.819-12.1-26.649-20.319c-0.431-0.521-0.86-1.03-1.27-1.561c-0.91-1.17-1.76-2.359-2.59-3.56
			C3.511,111.09,0,100.63,0,89.56C0,82.38,3.3,73.6,8.87,64.57V64.56c1.09-1.77,2.271-3.55,3.521-5.33c0,0,0-0.01,0.01-0.01
			C19.3,49.45,28.54,39.71,38.86,31.68h0.01c2.32-1.83,4.67-3.54,7.09-5.149C58.141,18.35,71.271,12.899,83.49,12.6v-0.04
			c0.18,0,0.36,0.011,0.53,0.021h0.01c0.19-0.01,0.35-0.021,0.53-0.021v0.04c12.21,0.3,25.35,5.75,37.519,13.931h0.01
			c2.421,1.609,4.771,3.319,7.091,5.149h0.01c10.32,8.03,19.56,17.771,26.46,27.54c0.01,0,0.01,0.01,0.01,0.01
			c1.25,1.78,2.43,3.561,3.52,5.33v0.011C164.75,73.6,168.05,82.38,168.05,89.56z"/>
		<path style="fill:#FFCA8A;" d="M156.82,111.38c0,4.231-0.37,8.39-1.06,12.43c-0.41,0.53-0.83,1.04-1.261,1.561
			c-6.84,8.22-15.96,15.18-26.649,20.319c-1.65,0.79-3.34,1.561-5.06,2.25h-0.01c-0.85,0.36-1.7,0.7-2.58,1.03
			c-2.189,0.82-4.43,1.58-6.74,2.25c-9.01,2.66-18.729,4.15-28.899,4.24v0.03c-0.181,0-0.34-0.011-0.53-0.011h-0.01
			c-0.17,0-0.351,0.011-0.53,0.011v-0.03c-10.17-0.09-19.89-1.58-28.89-4.24c-2.31-0.67-4.56-1.43-6.75-2.25
			c-0.87-0.33-1.73-0.67-2.58-1.03h-0.01c-1.721-0.689-3.4-1.46-5.051-2.25c-10.699-5.14-19.819-12.1-26.649-20.319
			c-0.431-0.521-0.86-1.03-1.27-1.561c-0.69-4.04-1.05-8.199-1.05-12.43c0-13.41,3.63-25.98,9.96-36.769
			c0.28-0.49,0.57-0.971,0.87-1.45c8.14-13.17,20.36-23.55,34.9-29.37c2.779-1.12,5.64-2.07,8.579-2.84
			c5.9-1.54,12.091-2.36,18.471-2.36h0.01c6.38,0,12.57,0.82,18.46,2.36c2.94,0.769,5.809,1.72,8.59,2.84
			c14.54,5.82,26.76,16.2,34.9,29.37c0.3,0.479,0.59,0.96,0.87,1.45C153.19,85.399,156.82,97.97,156.82,111.38z"/>
		<path style="fill:#735546;" d="M59.285,77.247c3.438-1.658,9.988-5.235,10.62-8.735c0.414-2.297-3.022-3.917-4.11-6.177
			c-2.748-5.698-10.778-8.505-16.477-5.757c-3.174,1.529-6.916,3.483-7.724,6.655c-0.645,2.526,1.153,6.137,2.372,8.662
			C46.715,77.594,53.586,79.995,59.285,77.247z"/>
		<circle style="fill:#79DB93;" cx="54.301" cy="66.913" r="9.849"/>
		<path style="fill:#735546;" d="M74.004,76.913c0,0,2.818-0.231,1.357-2.795c-1.462-2.565-6.7-15.532-19.554-18.577l0.328,0.681
			C56.136,56.222,65.503,58.581,74.004,76.913z"/>
		<path style="fill:#050403;" d="M48.649,66.898c-0.015,5.439,5.325,9.857,5.628,9.863c0.288,0.005,5.662-4.396,5.676-9.835
			c0.014-5.44-5.627-9.863-5.627-9.863C53.982,57.537,48.662,61.461,48.649,66.898z"/>
		<circle style="fill:#FFFFFF;" cx="51.255" cy="64.383" r="2.047"/>
		<circle style="fill:#FFFFFF;" cx="57.999" cy="68.512" r="1.59"/>
		<path style="fill:#735546;" d="M108.765,77.247c-3.438-1.658-9.988-5.235-10.62-8.735c-0.414-2.297,3.022-3.917,4.11-6.177
			c2.75-5.698,10.779-8.505,16.478-5.757c3.173,1.529,6.915,3.483,7.724,6.655c0.644,2.526-1.154,6.137-2.373,8.662
			C121.337,77.594,114.464,79.995,108.765,77.247z"/>
		<circle style="fill:#79DB93;" cx="113.749" cy="66.913" r="9.848"/>
		<path style="fill:#735546;" d="M94.046,76.913c0,0-2.818-0.231-1.357-2.795c1.463-2.565,6.701-15.532,19.554-18.577l-0.327,0.681
			C111.915,56.222,102.548,58.581,94.046,76.913z"/>
		<path style="fill:#050403;" d="M119.401,66.898c0.015,5.439-5.326,9.857-5.628,9.863c-0.288,0.005-5.661-4.396-5.677-9.835
			c-0.012-5.44,5.627-9.863,5.627-9.863C114.067,57.537,119.388,61.461,119.401,66.898z"/>
		<circle style="fill:#FFFFFF;" cx="116.795" cy="64.383" r="2.047"/>
		<circle style="fill:#FFFFFF;" cx="110.052" cy="68.512" r="1.591"/>
		<g>
			<path style="fill:#CCCCCC;" d="M110.917,95.395c0,7.706-5.185,12.685-12.891,12.685c-7.706,0-15.016-9.711-15.016-17.418
				c0-7.705,6.246-9.221,13.952-9.221C104.671,81.441,110.917,87.689,110.917,95.395z"/>
			<path style="fill:#CCCCCC;" d="M57.138,95.395c0,7.706,5.184,12.685,12.891,12.685c7.707,0,15.016-9.711,15.016-17.418
				c0-7.705-6.247-9.221-13.953-9.221C63.384,81.441,57.138,87.689,57.138,95.395z"/>
		</g>
		<g>
			<path style="fill:#FFFFFF;" d="M113.821,92.739c0,7.927-5.745,13.05-14.285,13.05C91,105.789,82.9,95.8,82.9,87.868
				c0-7.925,6.92-9.484,15.46-9.484C106.899,78.384,113.821,84.811,113.821,92.739z"/>
			<path style="fill:#FFFFFF;" d="M54.233,92.739c0,7.927,5.744,13.05,14.285,13.05c8.538,0,16.635-9.989,16.635-17.921
				c0-7.925-6.922-9.484-15.459-9.484C61.155,78.384,54.233,84.811,54.233,92.739z"/>
		</g>
		<path style="fill:#ED7994;" d="M94.446,76.057c-0.302-0.799-0.897-1.566-1.65-2.138c-0.788-0.614-1.771-1.004-2.796-1.004h-5.439
			h-1.07h-5.44c-1.024,0-2.007,0.39-2.796,1.004c-0.755,0.571-1.35,1.339-1.65,2.138c-0.464,1.23-0.26,2.525,1.036,3.324
			c1.738,1.079,5.333,0.843,5.915,3.745c0.76,3.829,1.975,5.553,2.935,6.262v0.452h0.021v-0.01c0.143-0.008,0.317-0.051,0.514-0.133
			c0.195,0.082,0.371,0.125,0.514,0.133v0.01h0.021v-0.452c0.959-0.709,2.175-2.433,2.934-6.262
			c0.582-2.902,4.176-2.666,5.915-3.745C94.705,78.582,94.91,77.287,94.446,76.057z"/>
	</g>
	<path style="opacity:0.6;fill:#FFFFFF;" d="M84.03,12.58v142.899h-0.01c-0.17,0-0.351,0.011-0.53,0.011v-0.03
		c-10.17-0.09-19.89-1.58-28.89-4.24c-2.31-0.67-4.56-1.43-6.75-2.25c-0.87-0.33-1.73-0.67-2.58-1.03h-0.01
		c-1.721-0.689-3.4-1.46-5.051-2.25c-10.699-5.14-19.819-12.1-26.649-20.319c-0.431-0.521-0.86-1.03-1.27-1.561
		c-0.91-1.17-1.76-2.359-2.59-3.56C3.511,111.09,0,100.63,0,89.56C0,82.38,3.3,73.6,8.87,64.57V64.56
		c-3.32-10.1-4.56-26.18,6.62-47.38c3.27-6.2,17.85,1.25,30.47,9.351C58.141,18.35,71.271,12.899,83.49,12.6v-0.04
		c0.18,0,0.36,0.011,0.53,0.021H84.03z"/>
</g>
<g>
</g>
<g>
</g>
<g>
</g>
<g>
</g>
<g>
</g>
<g>
</g>
<g>
</g>
<g>
</g>
<g>
</g>
<g>
</g>
<g>
</g>
<g>
</g>
<g>
</g>
<g>
</g>
<g>
</g>
</svg>
