<?xml version="1.0" encoding="utf-8"?>
<!-- Generator: Adobe Illustrator 24.2.3, SVG Export Plug-In . SVG Version: 6.00 Build 0)  -->
<svg version="1.1" id="Layer_1" xmlns="http://www.w3.org/2000/svg" xmlns:xlink="http://www.w3.org/1999/xlink" x="0px" y="0px"
	 viewBox="0 0 820 300" style="enable-background:new 0 0 820 300;" xml:space="preserve">
<style type="text/css">
	.st0{fill:#0B0E17;}
</style>
<g>
	<path class="st0" d="M391,158.34l-0.03-0.02l-0.03-0.02c-1.35-0.86-2.85-1.33-4.21-1.33c-0.51,0-1,0.06-1.46,0.19
		c-3.22,0.82-6.45,1.85-9.58,2.85l-0.03,0.01l-0.03,0.01c-8.26,3.19-16.86,7.14-27.06,12.41c-0.59,0.25-1.13,0.57-1.65,0.89
		c-1.01,0.6-1.97,1.17-3.16,1.17c-0.2,0-0.4-0.02-0.61-0.05c-0.16-0.16-0.33-0.32-0.49-0.47c-0.4-0.37-0.81-0.76-1.12-1.19
		c-10.35-17.62-25.41-32.08-40.14-45.08c-1.59-1.41-3.27-2.61-4.98-3.55c-0.45-0.31-1.06-0.48-1.77-0.48c-1.03,0-2.4,0.37-3.15,1.2
		c-0.43,0.48-0.53,0.96-0.53,1.31c-0.19,1.53-0.16,3.06-0.13,4.53c0.01,0.72,0.03,1.47,0.02,2.19l0,0.03l0,0.03
		c0.3,7.75-0.03,16.82-4.72,25.27c-1.71,3.02-3.36,5.7-6.24,7.8c-1,0.8-2.02,1.21-2.98,1.21c-1.47,0-2.71-0.94-3.49-2.65
		c-2.34-4.6-2.3-9.13,0.09-13.49c0.69-1.06,1.39-2.15,1.59-3.35c0.3-1.17-0.82-2.47-1.83-3.06c-0.87-0.8-2.28-0.8-3.43-0.8h-0.1
		l-0.1,0.02c-1.25,0.26-2.09,1-2.84,1.65l-0.03,0.03l-0.03,0.03c-3.16,3.29-4.45,8.87-3.91,14.25c-0.11,0.08-0.22,0.17-0.33,0.24
		c-6.3,3.94-12.93,6.62-20.23,8.17c-1.06,0.18-2.14,0.28-3.16,0.28c-3.14,0-6.06-0.91-8.9-2.78c-0.74-0.48-1.18-1.02-1.22-1.49
		c-0.03-0.46,0.35-0.9,0.67-1.18l0.02-0.02l0.02-0.02c1-0.99,2.17-1.95,3.3-2.89c1.16-0.96,2.37-1.96,3.43-3
		c3.1-3.21,4.25-7.03,3.34-11.09c-0.91-3.5-4.15-5.66-8.48-5.66c-3.81,0-6.96,1.14-9.65,3.5c-3.33,3.09-4.86,6.68-4.67,11.09
		c0,0,0,0,0,0c-0.53,0.02-1.07,0.04-1.63,0.04h-0.04l-0.04,0l-0.08,0.01c-5.37,0.4-10.92,0.81-16.38,1.01
		c-1.37,0.08-2.37,0.13-3.18,0.13c-2.75,0-2.86-0.17-3.07-4.46l-0.25-2.63c0.01-1.72,0.02-3.45,0.03-5.18
		c0.11-17.71,0.22-36.03,2.66-53.74c1.61-11.12,3.85-24.23,8.24-37.18c0.2-0.55,0.39-1.14,0.58-1.72c0.85-2.64,1.65-5.14,4.84-6.63
		c1.54-0.64,2.21-2.28,1.97-4.86c-0.17-1.76-1.46-3.06-3.3-3.33c-0.27-0.06-0.57-0.1-0.89-0.1c-0.88,0-1.85,0.24-2.52,0.62
		l-0.02,0.01l-0.02,0.01c-2.85,1.83-3.8,4.38-4.72,6.85c-0.09,0.25-0.19,0.5-0.28,0.75c-4.92,11.74-7.63,24.28-9.43,33.88
		c-3.42,19.67-4.77,41.2-4.11,65.81l0.01,0.51c0.05,3.11,0.11,6.32-0.07,9.35c-0.15,2.95-0.24,3.18-3.46,3.53l-25.41,2.44
		c-5.98,0.61-12.06,1.18-17.94,1.73c-5.89,0.55-11.97,1.12-17.95,1.73c-0.18,0.01-0.37,0.02-0.56,0.02c-2.16,0-2.54-0.99-2.64-1.96
		c-0.06-0.66,0.09-1.37,0.25-2.13l0.02-0.1l0-0.1c0.34-30.2,1.49-58.01,3.5-85.03c0.05-0.8,0.1-1.59,0.15-2.38
		c0.43-7.03,0.87-14.3,3.33-21.12c0.47-1.48,0.07-3.24-0.35-4.63c-0.18-0.89-1.29-1.69-2.18-1.78c-0.26-0.06-0.54-0.09-0.82-0.09
		c-0.56,0-1.14,0.12-1.72,0.36l-0.05,0.02l-0.05,0.03c-1.95,1.11-2.6,2.85-2.91,4.07l-0.01,0.04l-0.01,0.04
		c-0.13,0.79-0.29,1.59-0.44,2.4c-0.41,2.15-0.83,4.38-0.99,6.63c-2.92,27.64-3.82,55.94-4.69,83.3c-0.19,3.34-0.25,6.76-0.3,10.06
		c-0.06,3.29-0.12,6.69-0.3,10.02l0,0.04l0,0.04c0.04,2.49-0.04,2.69-3.54,3.26c-2,0.41-3.96,0.61-6.14,0.8
		c-5.06,0.42-10.3,0.8-15.37,1.16c-4.69,0.34-9.55,0.68-14.33,1.07c-7.47,0.55-14.59,1.26-22.13,2.01l-2.32,0.23
		c-1.58,0.14-2.93,0.94-3.52,2.08c-0.39,0.77-0.39,1.59,0.01,2.27l0.02,0.04l0.03,0.04c1.15,1.62,2.83,1.84,4.47,1.84
		c0.53,0,1.33,0,2.16-0.21l50.06-4.26c2.7-0.2,5.49-0.2,8.2-0.2c0.71,0,1.32,0.17,1.57,0.45c0.08,0.08,0.16,0.22,0.14,0.5l0,0.06
		l0,0.06l0.52,13.4c0.15,12.52,0.32,24.77,0.72,36.75c0.24,5.06,1.15,10.32,2.8,16.08c1.56,4.88,4.94,8.5,10.07,10.79l0.02,0.01
		l0.02,0.01c0.87,0.34,1.63,0.5,2.33,0.5c0.95,0,1.77-0.3,2.44-0.88l0.05-0.04l0.04-0.05c0.62-0.7,0.87-1.53,0.71-2.34
		c-0.18-0.87-0.81-1.6-1.77-2.06c-5.98-3.31-7.59-8.08-8.18-14.23c-2.54-19-2.13-38.06-1.44-57.55l0-0.03l0-0.03
		c-0.04-2.46-0.05-2.66,3.75-3.05c5.99-0.61,12.08-1.18,17.98-1.73c5.87-0.55,11.94-1.11,17.91-1.72
		c7.57-0.75,15.19-1.33,22.56-1.89l1.86-0.14c0.67-0.06,1.2-0.09,1.66-0.09c2.04,0,2.42,0.4,2.65,2.85
		c0.45,4.77,0.85,9.61,1.23,14.3c0.38,4.7,0.78,9.55,1.23,14.33c0.65,6.9,1.96,13.86,4.1,21.89c0.75,2.63,1.8,5.65,3.96,8.3
		c2.44,2.77,5,4.04,8.08,4.04c0.21,0,0.42-0.01,0.64-0.02l0.11-0.01l0.1-0.03c0.93-0.26,1.89-0.52,2.3-1.31
		c0.38-0.73,0.33-2.31-0.44-2.89l-0.08-0.06l-0.09-0.04c-6.94-3.38-7.87-8.8-8.85-14.54c-0.07-0.4-0.14-0.79-0.21-1.19
		c-1.82-9.01-4.25-28.69-4.14-35.76c-0.03-1.21-0.26-2.43-0.49-3.61c-0.63-3.34-0.87-5.46,1.01-6.75c2.43-1.7,6.4-1.84,10.24-1.97
		c1.63-0.06,3.31-0.11,4.86-0.29c0.84,0.01,1.68,0.24,2.56,0.49c0.76,0.21,1.54,0.43,2.4,0.52c0.7,0.09,1.41,0.13,2.1,0.13
		c0.35,0,0.7-0.01,1.04-0.04c-0.03,0.51,0.03,1.01,0.2,1.49c0.5,1.39,1.81,2.54,3.9,3.42c0.26,0.1,0.67,0.49,0.95,0.88l0.05,0.07
		l0.06,0.06c4.55,4.53,10.14,6.82,16.61,6.82c2.8,0,5.83-0.43,9-1.28c5.73-1.47,11.34-3.8,16.72-6.91c0.65,1.32,1.42,2.53,2.36,3.57
		c2.6,2.89,6,4.48,9.57,4.48c1.82,0,3.65-0.4,5.44-1.19c4.34-1.71,7.01-4.78,9.25-7.84c4.15-5.92,6.59-12.11,7.49-18.94
		c0.38-2.8,0.78-5.69,1.33-8.69c0.09,0.03,0.18,0.07,0.27,0.1c0.62,0.24,1.12,0.42,1.51,0.71c13.16,11.39,23.85,24,31.76,37.5
		c0.72,1.2,1.31,2.21,1.17,2.67c-0.15,0.5-1.17,1.27-2.58,2.32c-7.18,4.86-15.54,10.55-23.35,16.24
		c-7.67,5.62-14.38,11.85-20.51,19.05c-5.63,6.98-9.21,14.22-10.98,22.16c-1.13,5.77-2.04,13.4,1.02,21.49
		c4.46,12.43,17.88,20.78,33.41,20.78c0.55,0,1.1-0.01,1.66-0.03c7.28-0.18,13.84-2.1,21.25-6.22c12.21-7.14,19.91-17.06,22.9-29.48
		c2.83-11.07,2.96-22.36,0.39-33.56c-2.4-10.17-5.37-18.57-9.35-26.43c-0.83-1.64-1.11-2.58-0.92-3.12c0.19-0.53,0.97-1.07,2.6-1.81
		c3.19-1.5,6.31-3.16,9.33-4.76c8.88-4.71,18.06-9.59,29.58-10.79c0.24-0.01,0.44-0.08,0.58-0.13c0.13-0.05,0.21-0.07,0.34-0.07h0.2
		l0.19-0.08c1.13-0.48,1.87-1.48,2.03-2.75C392.99,160.86,392.3,159.31,391,158.34z M340.16,188.03
		c9.58,18.46,12.62,35.93,9.29,53.37c-1.82,9.95-6.77,17.92-15.12,24.37c-3.86,2.97-8.47,5.24-14.09,6.94
		c-3,0.9-6.02,1.36-8.98,1.36c-9.93,0-22-6.13-24.8-17.49c-1.42-5.9-1.07-11.87,1.12-19.38c2.39-7.03,6.58-13.67,12.44-19.69
		c11.86-12.03,26.69-21.86,38.28-29.09l0.07-0.04l0.06-0.05c0.14-0.12,0.79-0.19,1.54-0.27
		C340.03,188.04,340.1,188.04,340.16,188.03z M226.34,149.96c1.32-1.88,3.32-2.89,4.53-2.89c0.42,0,0.74,0.11,0.93,0.34l0.02,0.03
		l0.02,0.02c1.24,1.24,0.82,2.08-0.23,3.84c-0.2,0.34-0.41,0.68-0.6,1.04c-1.41,2.16-3.03,3.71-5.07,4.82
		c-0.05-0.04-0.1-0.07-0.15-0.11c-0.38-0.27-1-0.7-1.19-0.95C224,153.78,225.08,151.78,226.34,149.96z"/>
	<path class="st0" d="M747.14,157.82c-0.54-0.66-1.39-1.06-2.31-1.06c-0.62,0-1.23,0.18-1.75,0.51l-0.06,0.04l-0.06,0.05
		c-1.12,0.98-2.27,1.99-3.41,2.77c-6.3,3.94-12.93,6.62-20.23,8.17c-1.06,0.18-2.14,0.28-3.16,0.28c-3.14,0-6.06-0.91-8.9-2.78
		c-0.74-0.48-1.18-1.02-1.22-1.49c-0.03-0.46,0.35-0.9,0.67-1.18l0.02-0.02l0.02-0.02c1.01-0.99,2.18-1.95,3.31-2.89
		c1.16-0.96,2.36-1.95,3.43-3c3.1-3.21,4.25-7.03,3.34-11.09c-0.91-3.5-4.16-5.66-8.48-5.66c-2.9,0-5.42,0.67-7.64,2.02
		c0.02-1.62-0.74-2.9-2.14-3.55c-0.62-0.29-1.25-0.43-1.85-0.43c-1.04,0-1.99,0.43-2.73,1.24c-0.58,0.52-0.98,1.12-1.33,1.65
		c-0.11,0.17-0.22,0.33-0.32,0.47c-3.48,4.1-8.42,6.27-14.28,6.27c-1.94,0-3.96-0.25-5.99-0.73l-4.11-1.21
		c-1.48-0.37-2.89-0.55-4.22-0.55c-3.22,0-6.18,1.07-8.78,3.17c-2.86,2.5-4.75,4.49-6.35,6.69c-1.38,1.89-2.41,3.94-3.5,6.11
		c-0.32,0.64-0.64,1.28-0.98,1.93c-0.21,0.13-0.54,0.27-0.67,0.28c-0.13-0.02-0.47-0.18-0.67-0.31c-0.29-1.24-0.6-2.5-0.9-3.72
		c-1.48-5.99-3-12.19-2.17-18.19l0-0.03l0-0.03c0.03-0.32,0.08-0.65,0.14-1c0.19-1.08,0.42-2.43-0.42-3.66
		c-0.46-0.83-1.54-1.7-2.48-1.7c-1.67,0-2.76,0.11-3.39,0.65c-1.27,1.12-1.92,2.4-1.83,3.63c-0.09,4.13,0.02,7.99,0.19,12.6l0,0.09
		l0.02,0.09c0.31,1.42,0.59,2.89,0.87,4.3c0.18,0.9,0.36,1.82,0.54,2.73c-0.39,0.31-0.77,0.6-1.16,0.87
		c-6.3,3.94-12.93,6.62-20.23,8.17c-1.06,0.18-2.14,0.28-3.16,0.28c-3.14,0-6.06-0.91-8.9-2.78c-0.74-0.48-1.18-1.02-1.22-1.49
		c-0.03-0.46,0.35-0.9,0.67-1.18l0.02-0.02l0.02-0.02c1.01-0.99,2.18-1.95,3.31-2.89c1.16-0.96,2.36-1.95,3.43-3
		c3.1-3.21,4.25-7.04,3.34-11.09c-0.91-3.5-4.15-5.66-8.48-5.66c-3.81,0-6.96,1.14-9.66,3.5c-4.02,3.73-5.41,8.19-4.33,13.93
		c-0.37,0.16-0.73,0.33-1.09,0.5c-0.47,0.22-0.94,0.44-1.41,0.64c-2.38,1.12-4.76,2.28-7.06,3.4c-3.65,1.78-7.43,3.61-11.25,5.35
		c-6.81,3.05-14.68,4.89-24.77,5.8c-0.53,0.03-1.09,0.05-1.63,0.05c-5.61,0-9.83-1.89-12.91-5.77c-1.7-2.21-3.47-4.5-5.46-6.57
		c-2.96-3.04-6.43-4.65-10.04-4.65c-2.51,0-5.03,0.76-7.51,2.25c-3.48,2.23-6.43,5.18-9.04,9.03c-4.25,5.93-7.5,12.37-10.64,18.59
		c-0.32,0.6-0.59,1.24-0.85,1.86c-0.73,1.7-1.42,3.31-3.13,4.72c-1.92-2.65-2.56-5.33-3.19-7.92c-0.09-0.37-0.17-0.73-0.26-1.09
		c-6.03-27.08-7.62-53.79-4.76-79.51c2.37-0.22,5.04-0.67,7.69-1.78l0.03-0.01l0.03-0.02c1.47-0.75,2.2-2.11,2.03-3.83l-0.01-0.1
		l-0.03-0.1c-0.48-1.59-1.8-2.57-3.45-2.57c-0.17,0-0.34,0.01-0.51,0.03c-1.6,0-3.18,0.09-4.74,0.2
		c1.81-12.47,3.92-26.55,11.88-38.84c0.64-0.9,0.78-2.19,0.69-3.1c-0.09-0.91-0.87-2.25-1.99-2.83c-0.51-0.26-1.23-0.41-1.96-0.41
		c-0.59,0-1.4,0.1-1.92,0.55c-1.43,1.25-2.9,2.54-3.85,4.09c-3.57,6.06-5.49,12.69-7.15,18.95c-1.91,7.26-3.37,14.69-4.44,22.33
		c-3.21,0.32-6.41,0.66-9.53,1c-4.16,0.45-8.46,0.91-12.68,1.32c-0.21,0.01-0.45,0.02-0.67,0.02c-2.4,0-2.93-0.86-3.09-2.54
		c-0.03-0.9-0.06-1.81-0.09-2.7c-0.23-6.82-0.44-13.26,0.7-19.6c0.31-2.24-0.17-4.3-1.27-5.56c-0.64-0.74-1.48-1.15-2.35-1.15
		c-0.19,0-0.38,0.02-0.56,0.05c-3.97,0.56-4.12,3.96-4.18,5.41c-0.12,2.76-0.17,5.61-0.22,8.37c-0.05,2.73-0.1,5.56-0.22,8.29
		c-0.07,1.17,0.11,2.41,0.28,3.61c0.31,2.17,0.6,4.22-0.59,5.49c-1.37,1.53-3.82,1.66-6.41,1.66l-0.8,0l-0.81,0
		c-1.51,0-2.77,0.05-3.95,0.27c-0.52,0.01-1.02,0.06-1.5,0.11c-0.49,0.05-0.95,0.1-1.4,0.1h-0.14l-0.13,0.04
		c-0.28,0.08-0.58,0.12-0.88,0.17c-0.42,0.06-0.82,0.12-1.19,0.27c-0.96,0.34-3.75,1.37-3.11,4.15c0.23,2.02,2.11,3.47,4.51,3.47
		c0.79,0,1.51-0.05,2.2-0.1c0.69-0.05,1.34-0.1,2.05-0.1h0.04l0.04,0c1.39-0.1,2.79-0.26,4.15-0.41c1.32-0.15,2.69-0.3,4.04-0.4
		c4.24,0,4.61,0.26,4.9,3.36l2.94,31.07l0,0.03l0.01,0.03c0.46,2.79,0.97,6.03,1.51,9.46c0.82,5.27,1.76,11.24,2.78,17.15
		c0.45,2.61,1.37,5.3,2.26,7.91c0.25,0.73,0.5,1.46,0.73,2.18l0.02,0.06l0.03,0.05l0.32,0.7c0.84,1.81,1.78,3.86,3.11,5.73
		c0.79,1.26,2.11,3.34,4.88,3.34c0.29,0,0.59-0.02,0.89-0.07l0.06-0.01l0.06-0.02c0.95-0.26,1.66-0.89,1.99-1.76
		c0.43-1.14,0.14-2.57-0.82-4.02c-2.58-4.19-4.23-8.07-5.04-11.84c-4.42-20.24-6.12-40.84-7.76-60.77
		c-0.05-2.86,0.25-2.89,3.72-3.22l20.17-2.24c-0.65,6.7-1.01,13.59-1.06,20.74c-0.07,22.49,2.27,42.83,7.16,62.19
		c0.85,3.42,2.21,6.73,4.03,9.81c1.44,2.75,4.01,4.41,6.85,4.41c2.28,0,4.46-1.13,5.98-3.09c2.3-2.91,4.05-6.25,5.75-9.49
		c0.57-1.13,1.12-2.25,1.67-3.36c2.52-5.1,5.12-10.37,8.56-14.98c1.82-2.6,3.98-5.22,7.51-7.02c0.65-0.35,1.36-0.53,2.04-0.53
		c0.93,0,1.77,0.33,2.36,0.92l6.76,7.89c4.72,5.32,10.4,7.9,17.38,7.9c0.49,0,1-0.01,1.5-0.04c3.71-0.2,7.53-0.41,11.3-0.82
		c14.17-2.06,26-8.1,37.39-14.12c0.67,0.63,1.56,1.18,2.68,1.66c0.26,0.1,0.67,0.49,0.95,0.88l0.05,0.07l0.06,0.06
		c4.55,4.53,10.14,6.82,16.61,6.82c2.8,0,5.83-0.43,9-1.28c5.96-1.53,11.79-3.98,17.36-7.28c0.46,1.54,0.98,3.07,1.61,4.6
		c0.43,1.68,1.12,3.38,2.05,5.05c0.98,1.76,2.4,3.56,5.44,3.56h0.05l0.05-0.01c2.47-0.25,3.6-1.83,4.31-3.17l0.04-0.08l0.03-0.08
		c0.34-1.08,0.64-2.16,0.92-3.21c0.37-1.36,0.72-2.64,1.16-3.87c1.86-5.84,4.03-9.85,7.06-13.05c2.46-2.63,4.24-3.6,6.58-3.6
		c1.31,0,2.84,0.33,4.65,1.01c3,1.03,6.02,1.55,9.01,1.55c4.81,0,9.64-1.28,15.19-4.03c0.38-0.17,0.73-0.36,1.08-0.55
		c-0.62,2.54-0.5,5.37,0.33,8.6c0.01,0.07,0.03,0.16,0.06,0.26c0.07,0.25,0.17,0.66,0.13,1.03c-0.57,1.15-0.66,2.26-0.29,3.3
		c0.5,1.39,1.81,2.54,3.9,3.42c0.26,0.1,0.67,0.49,0.95,0.88l0.05,0.07l0.06,0.06c4.55,4.53,10.14,6.82,16.61,6.82
		c2.8,0,5.83-0.43,9-1.28c6.76-1.74,13.36-4.65,19.59-8.65l0.02-0.01l0.02-0.02c1.43-1.03,3.39-2.44,3.54-4.72
		C748.59,159.66,747.85,158.43,747.14,157.82z M707.9,147.06c0.42,0,0.74,0.11,0.93,0.34l0.02,0.03l0.02,0.02
		c1.24,1.24,0.82,2.07-0.23,3.84c-0.2,0.34-0.41,0.68-0.6,1.04c-1.41,2.16-3.03,3.71-5.07,4.82c-0.05-0.04-0.1-0.07-0.15-0.11
		c-0.38-0.27-1-0.7-1.19-0.94c-0.61-2.32,0.47-4.32,1.73-6.14C704.69,148.08,706.69,147.06,707.9,147.06z M595.99,149.96
		c1.32-1.88,3.32-2.89,4.53-2.89c0.42,0,0.74,0.11,0.93,0.34l0.02,0.03l0.02,0.02c1.24,1.24,0.82,2.08-0.24,3.84
		c-0.2,0.34-0.41,0.68-0.6,1.04c-1.41,2.16-3.03,3.71-5.07,4.82c-0.05-0.04-0.1-0.07-0.15-0.11c-0.38-0.27-1-0.7-1.19-0.95
		C593.65,153.78,594.73,151.78,595.99,149.96z"/>
	<path class="st0" d="M759.4,163.42c0.17,0,0.35-0.01,0.52-0.03c1.68-0.04,3.03-1.34,3.23-3.12l0.01-0.1l-0.01-0.1l-0.4-4.26
		c-1.22-17.78-2.6-37.97-4.36-59.29c-0.21-6.01-0.4-12.3-0.61-18.75c-0.35-11.3-0.72-22.99-1.18-34.62l0-0.03l0-0.03
		c-0.25-2.62-0.48-5.1-0.97-7.58c-0.17-1.19-1.89-2.18-3-2.26c-0.15-0.03-0.3-0.04-0.46-0.04h0c-1.02,0-2.29,0.64-2.89,1.46
		c-1.38,1.98-1.22,4.18-1.09,6.11c0.04,0.62,0.08,1.21,0.08,1.78c0.9,34.03,2.92,70.19,6.19,110.57c0.24,2.58,0.76,5.21,1.48,7.64
		C756.14,162.28,757.61,163.42,759.4,163.42z"/>
	<path class="st0" d="M765.48,181.26c-0.93-0.99-2.18-1.58-3.35-1.6c-0.18-0.01-0.35-0.02-0.52-0.02c-2.78,0-5.09,1.64-5.5,3.89
		l-0.01,0.06l0,0.06c-0.14,2.31,2.35,4.46,4.5,4.71c0.18,0.02,0.34,0.02,0.5,0.02c2.62,0,5.17-1.87,5.57-4.09l0.01-0.06l0-0.06
		C766.75,183.2,766.31,182.14,765.48,181.26z"/>
</g>
</svg>
